<svg xmlns="http://www.w3.org/2000/svg" width="20" height="18" viewBox="0 0 19.9 18"><path d="M19.8 10.3 11 0.5C10.7 0.2 10.4 0 10 0c0 0 0 0 0 0-0.4 0-0.8 0.2-1 0.5l-8.8 9.8c-0.2 0.2-0.2 0.5 0 0.7 0.1 0.1 0.2 0.1 0.3 0.1 0.1 0 0.3-0.1 0.4-0.2l2.1-2.4 0 8c0 0.8 0.7 1.5 1.5 1.5l11 0c0.8 0 1.5-0.7 1.5-1.5l0-8 2.1 2.4c0.2 0.2 0.5 0.2 0.7 0 0.2-0.2 0.2-0.5 0-0.7zm-7.9 6.8-4 0 0-4.5c0-0.3 0.2-0.5 0.5-0.5l3 0c0.3 0 0.5 0.2 0.5 0.5l0 4.5zm4-0.5c0 0.3-0.2 0.5-0.5 0.5l-2.5 0 0-4.5c0-0.8-0.7-1.5-1.5-1.5l-3 0c-0.8 0-1.5 0.7-1.5 1.5l0 4.5-2.5 0c-0.3 0-0.5-0.2-0.5-0.5l0-9.1 5.7-6.3c0.1-0.1 0.2-0.1 0.3-0.1 0.1 0 0.2 0.1 0.3 0.1l5.7 6.3 0 9.1z"/></svg>