<svg xmlns="http://www.w3.org/2000/svg" width="20" height="20" viewBox="0 0 20 20"><path d="M7.6 19.7c0 0-0.1 0-0.1 0-0.9-0.2-1.8-0.6-2.6-1.1-0.2-0.1-0.3-0.4-0.2-0.7 0.2-0.3 0.2-0.6 0.2-1 0-1.1-0.9-2-2-2-0.3 0-0.7 0.1-1 0.2-0.2 0.1-0.5 0-0.7-0.2-0.5-0.8-0.8-1.7-1.1-2.6-0.1-0.3 0.1-0.5 0.3-0.6 0.8-0.3 1.4-1 1.4-1.9s-0.5-1.6-1.4-1.9c-0.2-0.1-0.4-0.3-0.3-0.6 0.2-0.9 0.6-1.8 1.1-2.6 0.1-0.2 0.4-0.3 0.7-0.2 0.3 0.2 0.6 0.2 1 0.2 1.1 0 2-0.9 2-2 0-0.3-0.1-0.7-0.2-1-0.1-0.2 0-0.5 0.2-0.7 0.8-0.5 1.7-0.8 2.6-1.1 0.3-0.1 0.5 0.1 0.6 0.3 0.3 0.8 1 1.4 1.9 1.4s1.6-0.5 1.9-1.4c0.1-0.2 0.3-0.4 0.6-0.3 0.9 0.2 1.8 0.6 2.6 1.1 0.2 0.1 0.3 0.4 0.2 0.7-0.2 0.3-0.2 0.6-0.2 1 0 1.1 0.9 2 2 2 0.3 0 0.7-0.1 1-0.2 0.2-0.1 0.5 0 0.7 0.2 0.5 0.8 0.8 1.7 1.1 2.6 0.1 0.3-0.1 0.5-0.3 0.6-0.8 0.3-1.4 1-1.4 1.9s0.5 1.6 1.4 1.9c0.2 0.1 0.4 0.3 0.3 0.6-0.2 0.9-0.6 1.8-1.1 2.6-0.1 0.2-0.4 0.3-0.7 0.2-0.3-0.2-0.6-0.2-1-0.2-1.1 0-2 0.9-2 2 0 0.3 0.1 0.7 0.2 1 0.1 0.2 0 0.5-0.2 0.7-0.8 0.5-1.7 0.8-2.6 1.1-0.3 0.1-0.5-0.1-0.6-0.3-0.3-0.8-1-1.4-1.9-1.4s-1.6 0.5-1.9 1.4c-0.1 0.2-0.3 0.3-0.5 0.3zM10 17c1.1 0 2.1 0.6 2.7 1.6 0.5-0.2 1-0.4 1.5-0.6-0.1-0.3-0.2-0.6-0.2-1 0-1.7 1.3-3 3-3 0.3 0 0.7 0.1 1 0.2 0.3-0.5 0.5-1 0.6-1.5-1-0.5-1.6-1.5-1.6-2.7s0.6-2.1 1.6-2.7c-0.2-0.5-0.4-1-0.6-1.5-0.3 0.1-0.6 0.2-1 0.2-1.7 0-3-1.3-3-3 0-0.3 0.1-0.7 0.2-1-0.5-0.3-1-0.5-1.5-0.6-0.5 1-1.5 1.6-2.7 1.6s-2.1-0.6-2.7-1.6c-0.5 0.2-1 0.4-1.5 0.6 0.1 0.3 0.2 0.6 0.2 1 0 1.7-1.3 3-3 3-0.3 0-0.7-0.1-1-0.2-0.3 0.5-0.5 1-0.6 1.5 1 0.5 1.6 1.5 1.6 2.7s-0.6 2.1-1.6 2.7c0.2 0.5 0.4 1 0.6 1.5 0.3-0.1 0.6-0.2 1-0.2 1.7 0 3 1.3 3 3 0 0.3-0.1 0.7-0.2 1 0.5 0.3 1 0.5 1.5 0.6 0.5-1 1.5-1.6 2.7-1.6z"/><path d="M10 13c-1.7 0-3-1.3-3-3s1.3-3 3-3 3 1.3 3 3-1.3 3-3 3zM10 8c-1.1 0-2 0.9-2 2s0.9 2 2 2c1.1 0 2-0.9 2-2s-0.9-2-2-2z"/></svg>